<svg width="72" height="14" viewBox="0 0 72 14" fill="none" xmlns="http://www.w3.org/2000/svg">
<path d="M16.6667 4.45044H11.5435V6.90658H16.6667V4.45044Z" fill="#3A424E"/>
<path d="M27.341 3.30534C26.8919 2.53376 26.2502 1.89201 25.4786 1.44289C24.7019 0.996587 23.8218 0.761719 22.926 0.761719C22.0302 0.761719 21.1501 0.996587 20.3734 1.44289C19.6053 1.89245 18.9676 2.53434 18.523 3.30534C18.0702 4.08272 17.8339 4.96729 17.8389 5.86696V13.2384H20.3765V10.1825L20.4367 10.2247C21.171 10.736 22.0496 10.999 22.9441 10.9751C23.8396 10.9801 24.72 10.7449 25.4937 10.294C26.2652 9.84492 26.907 9.20317 27.3561 8.43159C27.8093 7.65398 28.0481 6.77003 28.0481 5.86997C28.0481 4.96992 27.8093 4.08597 27.3561 3.30836L27.341 3.30534ZM24.7885 7.75653C24.5514 8.00523 24.2647 8.20134 23.947 8.33217C23.6292 8.46299 23.2876 8.52562 22.9441 8.51598C22.5986 8.52402 22.2552 8.46074 21.9352 8.33007C21.6153 8.1994 21.3257 8.00415 21.0847 7.75653C20.8387 7.50841 20.6454 7.21312 20.5164 6.8884C20.3875 6.56368 20.3255 6.21624 20.3343 5.86696C20.3255 5.51768 20.3875 5.17024 20.5164 4.84552C20.6454 4.5208 20.8387 4.22551 21.0847 3.97739C21.3257 3.72977 21.6153 3.53452 21.9352 3.40385C22.2552 3.27318 22.5986 3.2099 22.9441 3.21795C23.2871 3.20873 23.6282 3.27156 23.9453 3.40237C24.2625 3.53319 24.5487 3.72908 24.7855 3.97739C25.0257 4.22864 25.2138 4.52496 25.339 4.84927C25.4642 5.17358 25.5239 5.51946 25.5148 5.86696C25.5243 6.21426 25.465 6.56001 25.3404 6.88431C25.2157 7.2086 25.0282 7.50504 24.7885 7.75653Z" fill="#3A424E"/>
<path d="M36.7649 1.44289C35.9882 0.996587 35.1081 0.761719 34.2123 0.761719C33.3165 0.761719 32.4364 0.996587 31.6597 1.44289C30.8895 1.89376 30.2481 2.53511 29.7973 3.30534C29.344 4.08296 29.1052 4.9669 29.1052 5.86696C29.1052 6.76702 29.344 7.65096 29.7973 8.42858C30.2473 9.19863 30.8889 9.83918 31.6597 10.288C32.4332 10.7422 33.3153 10.9786 34.2123 10.9721C34.7519 10.9737 35.2848 10.8521 35.7703 10.6165C36.1724 10.4562 36.5052 10.1596 36.7106 9.7787L36.7829 9.61295V10.8184H39.2993V5.86696C39.3051 4.9672 39.0688 4.08243 38.6152 3.30534C38.1715 2.53375 37.5336 1.89167 36.7649 1.44289ZM36.0747 7.7716C35.8377 8.01961 35.5515 8.2153 35.2344 8.34609C34.9173 8.47688 34.5763 8.53988 34.2334 8.53104C33.8875 8.53879 33.5437 8.47537 33.2233 8.34473C32.9029 8.21409 32.6128 8.01901 32.3709 7.7716C32.1251 7.52287 31.9322 7.22698 31.8037 6.90172C31.6753 6.57647 31.614 6.22858 31.6235 5.87902C31.6144 5.52995 31.6759 5.18264 31.8043 4.85793C31.9328 4.53322 32.1255 4.23781 32.3709 3.98944C32.6128 3.74203 32.9029 3.54695 33.2233 3.41631C33.5437 3.28567 33.8875 3.22226 34.2334 3.23C34.5763 3.22116 34.9173 3.28416 35.2344 3.41495C35.5515 3.54574 35.8377 3.74143 36.0747 3.98944C36.5581 4.49346 36.8215 5.16879 36.807 5.86696C36.816 6.21516 36.7559 6.56168 36.6302 6.88652C36.5045 7.21136 36.3157 7.50808 36.0747 7.75955V7.7716Z" fill="#3A424E"/>
<path d="M50.0671 3.30534C49.618 2.53376 48.9762 1.89201 48.2046 1.44289C47.428 0.996587 46.5478 0.761719 45.6521 0.761719C44.7563 0.761719 43.8762 0.996587 43.0995 1.44289C42.3314 1.89245 41.6936 2.53434 41.2491 3.30534C40.7975 4.08329 40.5614 4.96748 40.565 5.86696V13.2384H43.1025V10.1825L43.1628 10.2247C43.8929 10.733 44.7657 10.9958 45.6551 10.9751C46.5505 10.9801 47.4309 10.7449 48.2046 10.294C48.9762 9.84492 49.618 9.20317 50.0671 8.43159C50.5203 7.65398 50.7591 6.77003 50.7591 5.86997C50.7591 4.96992 50.5203 4.08597 50.0671 3.30836V3.30534ZM47.5145 7.75653C47.2773 8.00508 46.9906 8.20109 46.6729 8.3319C46.3552 8.46272 46.0136 8.52543 45.6701 8.51598C45.3247 8.52348 44.9814 8.45995 44.6616 8.32931C44.3417 8.19867 44.0521 8.00372 43.8107 7.75653C43.5658 7.50775 43.3735 7.21227 43.2451 6.88766C43.1167 6.56305 43.0549 6.21594 43.0633 5.86696C43.0549 5.51798 43.1167 5.17087 43.2451 4.84626C43.3735 4.52165 43.5658 4.22617 43.8107 3.97739C44.0521 3.73021 44.3417 3.53525 44.6616 3.40461C44.9814 3.27397 45.3247 3.21044 45.6701 3.21795C46.0136 3.20849 46.3552 3.2712 46.6729 3.40202C46.9906 3.53283 47.2773 3.72885 47.5145 3.97739C47.7577 4.22722 47.9488 4.52295 48.0766 4.84736C48.2044 5.17177 48.2664 5.51837 48.2589 5.86696C48.2668 6.21534 48.2053 6.56182 48.078 6.88621C47.9507 7.21061 47.7602 7.50646 47.5175 7.75653H47.5145Z" fill="#3A424E"/>
<path d="M8.91841 2.28656C8.44801 1.805 7.88525 1.42333 7.26385 1.16441C6.64245 0.905488 5.97518 0.774649 5.30201 0.779727H5.16338C4.47205 0.773954 3.78622 0.902931 3.14422 1.15945C2.53313 1.41598 1.98203 1.79673 1.52588 2.27752C1.07681 2.75009 0.724615 3.30603 0.489177 3.91394C-0.000623964 5.17394 -0.000623964 6.57171 0.489177 7.83171C0.728674 8.43378 1.08165 8.98422 1.52889 9.45307C1.98599 9.92762 2.53583 10.3031 3.14422 10.5561C3.78313 10.8273 4.46931 10.9696 5.16338 10.975H5.21762C6.17536 10.9961 7.1203 10.7521 7.94801 10.2698C8.6285 9.87983 9.18683 9.30793 9.56032 8.61828L9.68388 8.39225L7.43267 7.71719L7.36336 7.83473C7.29025 7.96594 7.20227 8.0883 7.10116 8.19938C6.95695 8.35189 6.79151 8.48282 6.60994 8.58814C6.41443 8.70113 6.2046 8.78729 5.98611 8.84431C5.75818 8.90007 5.52459 8.92939 5.28995 8.9317C4.98025 8.9311 4.67346 8.87179 4.38585 8.75691C4.10029 8.64312 3.83936 8.47531 3.61736 8.26267C3.39043 8.03941 3.20564 7.77704 3.07189 7.48815C2.97551 7.28652 2.90368 7.07404 2.85792 6.85528V6.81008H10.1932L10.2414 6.46953C10.2414 6.39419 10.2595 6.31282 10.2655 6.22241C10.2796 6.08222 10.2866 5.9414 10.2866 5.8005C10.2863 5.1497 10.1678 4.50437 9.93703 3.89586C9.71038 3.29578 9.36379 2.74819 8.91841 2.28656ZM2.79765 4.85421V4.809C2.84135 4.60133 2.90807 4.39917 2.99655 4.20627C3.12035 3.92691 3.29837 3.6749 3.5203 3.46487C3.74224 3.25483 4.00366 3.09095 4.28942 2.98272C4.5761 2.86439 4.88337 2.80396 5.19352 2.80491H5.24475C5.55464 2.80654 5.86142 2.86688 6.14885 2.98272C6.43381 3.09122 6.69561 3.2528 6.92035 3.45888C7.14581 3.67282 7.32883 3.92741 7.45979 4.20928C7.55315 4.40108 7.62297 4.60346 7.66774 4.81202V4.85722L2.79765 4.85421Z" fill="#3A424E"/>
<path d="M60.7052 2.28356C60.2507 1.81418 59.7079 1.43932 59.108 1.18056C58.4757 0.905626 57.7934 0.764049 57.1039 0.764674H56.9592C56.2639 0.762509 55.5748 0.896633 54.931 1.15946C54.3198 1.41712 53.7687 1.79887 53.3127 2.28055C52.862 2.75185 52.5096 3.30813 52.276 3.91697C51.7856 5.17686 51.7856 6.57486 52.276 7.83474C52.5147 8.43719 52.8678 8.98776 53.3157 9.45609C53.7728 9.93065 54.3227 10.3061 54.931 10.5591C55.575 10.8295 56.2668 10.9679 56.9653 10.9659H57.0195C57.9773 10.9871 58.9222 10.743 59.7499 10.2607C60.4293 9.87036 60.9865 9.29851 61.3592 8.60925L61.4797 8.38323L59.2285 7.70817L59.1592 7.8257C59.0861 7.95692 58.9981 8.07927 58.897 8.19035C58.753 8.34305 58.5875 8.47401 58.4058 8.57912C58.2109 8.69331 58.0009 8.77954 57.782 8.83528C57.5543 8.89252 57.3206 8.92186 57.0858 8.92268C56.4628 8.92416 55.8634 8.68439 55.4132 8.25364C55.1844 8.03345 54.9966 7.77424 54.8587 7.48817C54.7632 7.28617 54.6914 7.0738 54.6447 6.8553V6.81009H61.971L62.0162 6.47256C62.0162 6.39823 62.0252 6.31384 62.0433 6.21942C62.0575 6.07822 62.0646 5.9364 62.0644 5.79449C62.0638 5.14371 61.9453 4.49843 61.7148 3.88985C61.4908 3.29145 61.1473 2.74492 60.7052 2.28356ZM54.5875 4.8482V4.80299C54.6336 4.5956 54.7013 4.39359 54.7894 4.20026C54.9164 3.91852 55.0977 3.66456 55.3228 3.45287C55.5468 3.24355 55.8086 3.07888 56.0943 2.96767C56.3812 2.85029 56.6885 2.79088 56.9984 2.79287H57.0497C57.3594 2.79347 57.6661 2.85278 57.9538 2.96767C58.2379 3.07928 58.4993 3.24165 58.7253 3.44684C58.9515 3.65896 59.1346 3.91272 59.2647 4.19423C59.3562 4.38677 59.426 4.58894 59.4726 4.79696V4.84217L54.5875 4.8482Z" fill="#3A424E"/>
<path d="M71.0935 1.86781C70.6628 1.57854 70.1995 1.34084 69.7133 1.1596C69.2165 0.975937 68.6909 0.882058 68.1613 0.882341H68.11C67.456 0.880582 66.8089 1.01718 66.2114 1.28316C65.629 1.5433 65.1005 1.91026 64.6533 2.36507C64.203 2.81848 63.8431 3.35335 63.5925 3.94121C63.3307 4.54823 63.1973 5.20287 63.2007 5.86394V10.8033H65.6991V5.84887C65.6963 5.52243 65.762 5.19904 65.892 4.89956C66.0167 4.60314 66.1967 4.33315 66.4224 4.10395C66.6415 3.87656 66.9037 3.69521 67.1939 3.57053C67.7004 3.35086 68.2685 3.31776 68.7971 3.47711C69.0244 3.55235 69.2452 3.64608 69.4571 3.75738L69.656 3.8719L71.3949 2.0637L71.0935 1.86781Z" fill="#3A424E"/>
</svg>
